<?xml version="1.0" encoding="UTF-8" standalone="no"?>
<!DOCTYPE svg PUBLIC "-//W3C//DTD SVG 1.1//EN"
 "http://www.w3.org/Graphics/SVG/1.1/DTD/svg11.dtd">
<!-- Generated by graphviz version 12.2.1 (0)
 -->
<!-- Pages: 1 -->
<svg width="1045pt" height="156pt"
 viewBox="0.00 0.00 1045.25 156.00" xmlns="http://www.w3.org/2000/svg" xmlns:xlink="http://www.w3.org/1999/xlink">
<g id="graph0" class="graph" transform="scale(1 1) rotate(0) translate(4 152)">
<polygon fill="white" stroke="none" points="-4,4 -4,-152 1041.25,-152 1041.25,4 -4,4"/>
<!-- 4860324880 -->
<g id="node1" class="node">
<title>4860324880</title>
<polygon fill="none" stroke="black" points="4.88,-111.5 4.88,-147.5 161.62,-147.5 161.62,-111.5 4.88,-111.5"/>
<text text-anchor="middle" x="15.88" y="-124.7" font-family="Times,serif" font-size="14.00">a</text>
<polyline fill="none" stroke="black" points="26.88,-112 26.88,-147.5"/>
<text text-anchor="middle" x="53.62" y="-124.7" font-family="Times,serif" font-size="14.00">2.0000</text>
<polyline fill="none" stroke="black" points="80.38,-112 80.38,-147.5"/>
<text text-anchor="middle" x="121" y="-124.7" font-family="Times,serif" font-size="14.00">grad 6.0000</text>
</g>
<!-- 4860388064* -->
<g id="node6" class="node">
<title>4860388064*</title>
<ellipse fill="none" stroke="black" cx="229.5" cy="-101.5" rx="27" ry="18"/>
<text text-anchor="middle" x="229.5" y="-96.45" font-family="Times,serif" font-size="14.00">*</text>
</g>
<!-- 4860324880&#45;&gt;4860388064* -->
<g id="edge8" class="edge">
<title>4860324880&#45;&gt;4860388064*</title>
<path fill="none" stroke="black" d="M161.86,-114.43C172.37,-112.4 182.71,-110.39 192.01,-108.58"/>
<polygon fill="black" stroke="black" points="192.51,-112.05 201.66,-106.71 191.18,-105.18 192.51,-112.05"/>
</g>
<!-- 4860324400 -->
<g id="node2" class="node">
<title>4860324400</title>
<polygon fill="none" stroke="black" points="0,-56.5 0,-92.5 166.5,-92.5 166.5,-56.5 0,-56.5"/>
<text text-anchor="middle" x="11.38" y="-69.7" font-family="Times,serif" font-size="14.00">b</text>
<polyline fill="none" stroke="black" points="22.75,-57 22.75,-92.5"/>
<text text-anchor="middle" x="51.75" y="-69.7" font-family="Times,serif" font-size="14.00">&#45;3.0000</text>
<polyline fill="none" stroke="black" points="80.75,-57 80.75,-92.5"/>
<text text-anchor="middle" x="123.62" y="-69.7" font-family="Times,serif" font-size="14.00">grad &#45;4.0000</text>
</g>
<!-- 4860324400&#45;&gt;4860388064* -->
<g id="edge6" class="edge">
<title>4860324400&#45;&gt;4860388064*</title>
<path fill="none" stroke="black" d="M166.91,-89.97C175.6,-91.6 184.09,-93.19 191.85,-94.64"/>
<polygon fill="black" stroke="black" points="191.03,-98.05 201.5,-96.45 192.32,-91.17 191.03,-98.05"/>
</g>
<!-- 4860387968 -->
<g id="node3" class="node">
<title>4860387968</title>
<polygon fill="none" stroke="black" points="586.5,-55.5 586.5,-91.5 747.75,-91.5 747.75,-55.5 586.5,-55.5"/>
<text text-anchor="middle" x="597.5" y="-68.7" font-family="Times,serif" font-size="14.00">e</text>
<polyline fill="none" stroke="black" points="608.5,-56 608.5,-91.5"/>
<text text-anchor="middle" x="635.25" y="-68.7" font-family="Times,serif" font-size="14.00">4.0000</text>
<polyline fill="none" stroke="black" points="662,-56 662,-91.5"/>
<text text-anchor="middle" x="704.88" y="-68.7" font-family="Times,serif" font-size="14.00">grad &#45;2.0000</text>
</g>
<!-- 4860387728* -->
<g id="node10" class="node">
<title>4860387728*</title>
<ellipse fill="none" stroke="black" cx="810.75" cy="-45.5" rx="27" ry="18"/>
<text text-anchor="middle" x="810.75" y="-40.45" font-family="Times,serif" font-size="14.00">*</text>
</g>
<!-- 4860387968&#45;&gt;4860387728* -->
<g id="edge4" class="edge">
<title>4860387968&#45;&gt;4860387728*</title>
<path fill="none" stroke="black" d="M748.04,-57.7C756.79,-55.97 765.35,-54.28 773.18,-52.73"/>
<polygon fill="black" stroke="black" points="773.81,-56.17 782.94,-50.8 772.45,-49.31 773.81,-56.17"/>
</g>
<!-- 4860387968+ -->
<g id="node4" class="node">
<title>4860387968+</title>
<ellipse fill="none" stroke="black" cx="523.5" cy="-73.5" rx="27" ry="18"/>
<text text-anchor="middle" x="523.5" y="-68.45" font-family="Times,serif" font-size="14.00">+</text>
</g>
<!-- 4860387968+&#45;&gt;4860387968 -->
<g id="edge1" class="edge">
<title>4860387968+&#45;&gt;4860387968</title>
<path fill="none" stroke="black" d="M550.81,-73.5C557.93,-73.5 566.05,-73.5 574.63,-73.5"/>
<polygon fill="black" stroke="black" points="574.59,-77 584.59,-73.5 574.59,-70 574.59,-77"/>
</g>
<!-- 4860388064 -->
<g id="node5" class="node">
<title>4860388064</title>
<polygon fill="none" stroke="black" points="293.25,-83.5 293.25,-119.5 459.75,-119.5 459.75,-83.5 293.25,-83.5"/>
<text text-anchor="middle" x="304.62" y="-96.7" font-family="Times,serif" font-size="14.00">d</text>
<polyline fill="none" stroke="black" points="316,-84 316,-119.5"/>
<text text-anchor="middle" x="345" y="-96.7" font-family="Times,serif" font-size="14.00">&#45;6.0000</text>
<polyline fill="none" stroke="black" points="374,-84 374,-119.5"/>
<text text-anchor="middle" x="416.88" y="-96.7" font-family="Times,serif" font-size="14.00">grad &#45;2.0000</text>
</g>
<!-- 4860388064&#45;&gt;4860387968+ -->
<g id="edge9" class="edge">
<title>4860388064&#45;&gt;4860387968+</title>
<path fill="none" stroke="black" d="M460.17,-85.54C469.22,-83.79 478.07,-82.08 486.11,-80.53"/>
<polygon fill="black" stroke="black" points="486.62,-83.99 495.78,-78.66 485.3,-77.12 486.62,-83.99"/>
</g>
<!-- 4860388064*&#45;&gt;4860388064 -->
<g id="edge2" class="edge">
<title>4860388064*&#45;&gt;4860388064</title>
<path fill="none" stroke="black" d="M256.76,-101.5C264.1,-101.5 272.54,-101.5 281.44,-101.5"/>
<polygon fill="black" stroke="black" points="281.43,-105 291.43,-101.5 281.43,-98 281.43,-105"/>
</g>
<!-- 4860323632 -->
<g id="node7" class="node">
<title>4860323632</title>
<polygon fill="none" stroke="black" points="292.5,-28.5 292.5,-64.5 460.5,-64.5 460.5,-28.5 292.5,-28.5"/>
<text text-anchor="middle" x="303.5" y="-41.7" font-family="Times,serif" font-size="14.00">c</text>
<polyline fill="none" stroke="black" points="314.5,-29 314.5,-64.5"/>
<text text-anchor="middle" x="344.62" y="-41.7" font-family="Times,serif" font-size="14.00">10.0000</text>
<polyline fill="none" stroke="black" points="374.75,-29 374.75,-64.5"/>
<text text-anchor="middle" x="417.62" y="-41.7" font-family="Times,serif" font-size="14.00">grad &#45;2.0000</text>
</g>
<!-- 4860323632&#45;&gt;4860387968+ -->
<g id="edge7" class="edge">
<title>4860323632&#45;&gt;4860387968+</title>
<path fill="none" stroke="black" d="M460.59,-61.97C469.41,-63.61 478.02,-65.22 485.88,-66.68"/>
<polygon fill="black" stroke="black" points="485.2,-70.11 495.67,-68.5 486.48,-63.23 485.2,-70.11"/>
</g>
<!-- 4860387632 -->
<g id="node8" class="node">
<title>4860387632</title>
<polygon fill="none" stroke="black" points="587.25,-0.5 587.25,-36.5 747,-36.5 747,-0.5 587.25,-0.5"/>
<text text-anchor="middle" x="597.5" y="-13.7" font-family="Times,serif" font-size="14.00">f</text>
<polyline fill="none" stroke="black" points="607.75,-1 607.75,-36.5"/>
<text text-anchor="middle" x="636.75" y="-13.7" font-family="Times,serif" font-size="14.00">&#45;2.0000</text>
<polyline fill="none" stroke="black" points="665.75,-1 665.75,-36.5"/>
<text text-anchor="middle" x="706.38" y="-13.7" font-family="Times,serif" font-size="14.00">grad 4.0000</text>
</g>
<!-- 4860387632&#45;&gt;4860387728* -->
<g id="edge5" class="edge">
<title>4860387632&#45;&gt;4860387728*</title>
<path fill="none" stroke="black" d="M747.22,-33.58C756.24,-35.3 765.09,-36.99 773.15,-38.52"/>
<polygon fill="black" stroke="black" points="772.37,-41.94 782.85,-40.37 773.68,-35.06 772.37,-41.94"/>
</g>
<!-- 4860387728 -->
<g id="node9" class="node">
<title>4860387728</title>
<polygon fill="none" stroke="black" points="873.75,-27.5 873.75,-63.5 1037.25,-63.5 1037.25,-27.5 873.75,-27.5"/>
<text text-anchor="middle" x="885.88" y="-40.7" font-family="Times,serif" font-size="14.00">L</text>
<polyline fill="none" stroke="black" points="898,-28 898,-63.5"/>
<text text-anchor="middle" x="927" y="-40.7" font-family="Times,serif" font-size="14.00">&#45;8.0000</text>
<polyline fill="none" stroke="black" points="956,-28 956,-63.5"/>
<text text-anchor="middle" x="996.62" y="-40.7" font-family="Times,serif" font-size="14.00">grad 1.0000</text>
</g>
<!-- 4860387728*&#45;&gt;4860387728 -->
<g id="edge3" class="edge">
<title>4860387728*&#45;&gt;4860387728</title>
<path fill="none" stroke="black" d="M837.93,-45.5C845.18,-45.5 853.48,-45.5 862.24,-45.5"/>
<polygon fill="black" stroke="black" points="862.02,-49 872.02,-45.5 862.02,-42 862.02,-49"/>
</g>
</g>
</svg>
