<?xml version="1.0" encoding="UTF-8" standalone="no"?>
<!DOCTYPE svg PUBLIC "-//W3C//DTD SVG 1.1//EN"
 "http://www.w3.org/Graphics/SVG/1.1/DTD/svg11.dtd">
<!-- Generated by graphviz version 12.2.1 (0)
 -->
<!-- Pages: 1 -->
<svg width="448pt" height="45pt"
 viewBox="0.00 0.00 448.25 45.00" xmlns="http://www.w3.org/2000/svg" xmlns:xlink="http://www.w3.org/1999/xlink">
<g id="graph0" class="graph" transform="scale(1 1) rotate(0) translate(4 41)">
<polygon fill="white" stroke="none" points="-4,4 -4,-41 444.25,-41 444.25,4 -4,4"/>
<!-- 4859970944 -->
<g id="node1" class="node">
<title>4859970944</title>
<polygon fill="none" stroke="black" points="282.75,-0.5 282.75,-36.5 440.25,-36.5 440.25,-0.5 282.75,-0.5"/>
<text text-anchor="middle" x="294.12" y="-13.7" font-family="Times,serif" font-size="14.00">b</text>
<polyline fill="none" stroke="black" points="305.5,-1 305.5,-36.5"/>
<text text-anchor="middle" x="332.25" y="-13.7" font-family="Times,serif" font-size="14.00">6.0000</text>
<polyline fill="none" stroke="black" points="359,-1 359,-36.5"/>
<text text-anchor="middle" x="399.62" y="-13.7" font-family="Times,serif" font-size="14.00">grad 1.0000</text>
</g>
<!-- 4859970944+ -->
<g id="node2" class="node">
<title>4859970944+</title>
<ellipse fill="none" stroke="black" cx="219.75" cy="-18.5" rx="27" ry="18"/>
<text text-anchor="middle" x="219.75" y="-13.45" font-family="Times,serif" font-size="14.00">+</text>
</g>
<!-- 4859970944+&#45;&gt;4859970944 -->
<g id="edge1" class="edge">
<title>4859970944+&#45;&gt;4859970944</title>
<path fill="none" stroke="black" d="M247.04,-18.5C254.18,-18.5 262.34,-18.5 270.94,-18.5"/>
<polygon fill="black" stroke="black" points="270.92,-22 280.92,-18.5 270.92,-15 270.92,-22"/>
</g>
<!-- 4859816448 -->
<g id="node3" class="node">
<title>4859816448</title>
<polygon fill="none" stroke="black" points="0,-0.5 0,-36.5 156.75,-36.5 156.75,-0.5 0,-0.5"/>
<text text-anchor="middle" x="11" y="-13.7" font-family="Times,serif" font-size="14.00">a</text>
<polyline fill="none" stroke="black" points="22,-1 22,-36.5"/>
<text text-anchor="middle" x="48.75" y="-13.7" font-family="Times,serif" font-size="14.00">3.0000</text>
<polyline fill="none" stroke="black" points="75.5,-1 75.5,-36.5"/>
<text text-anchor="middle" x="116.12" y="-13.7" font-family="Times,serif" font-size="14.00">grad 2.0000</text>
</g>
<!-- 4859816448&#45;&gt;4859970944+ -->
<g id="edge2" class="edge">
<title>4859816448&#45;&gt;4859970944+</title>
<path fill="none" stroke="black" d="M157.21,-18.5C165.56,-18.5 173.75,-18.5 181.29,-18.5"/>
<polygon fill="black" stroke="black" points="181.03,-22 191.03,-18.5 181.03,-15 181.03,-22"/>
</g>
</g>
</svg>
