<?xml version="1.0" encoding="UTF-8" standalone="no"?>
<!DOCTYPE svg PUBLIC "-//W3C//DTD SVG 1.1//EN"
 "http://www.w3.org/Graphics/SVG/1.1/DTD/svg11.dtd">
<!-- Generated by graphviz version 12.2.1 (0)
 -->
<!-- Pages: 1 -->
<svg width="1399pt" height="210pt"
 viewBox="0.00 0.00 1399.25 210.00" xmlns="http://www.w3.org/2000/svg" xmlns:xlink="http://www.w3.org/1999/xlink">
<g id="graph0" class="graph" transform="scale(1 1) rotate(0) translate(4 206)">
<polygon fill="white" stroke="none" points="-4,4 -4,-206 1395.25,-206 1395.25,4 -4,4"/>
<!-- 4860446224 -->
<g id="node1" class="node">
<title>4860446224</title>
<polygon fill="none" stroke="black" points="609,-82.5 609,-118.5 824.25,-118.5 824.25,-82.5 609,-82.5"/>
<text text-anchor="middle" x="647" y="-95.7" font-family="Times,serif" font-size="14.00">x1w1x2w2</text>
<polyline fill="none" stroke="black" points="685,-83 685,-118.5"/>
<text text-anchor="middle" x="714" y="-95.7" font-family="Times,serif" font-size="14.00">&#45;6.0000</text>
<polyline fill="none" stroke="black" points="743,-83 743,-118.5"/>
<text text-anchor="middle" x="783.62" y="-95.7" font-family="Times,serif" font-size="14.00">grad 0.5000</text>
</g>
<!-- 4860447424+ -->
<g id="node9" class="node">
<title>4860447424+</title>
<ellipse fill="none" stroke="black" cx="887.25" cy="-127.5" rx="27" ry="18"/>
<text text-anchor="middle" x="887.25" y="-122.45" font-family="Times,serif" font-size="14.00">+</text>
</g>
<!-- 4860446224&#45;&gt;4860447424+ -->
<g id="edge8" class="edge">
<title>4860446224&#45;&gt;4860447424+</title>
<path fill="none" stroke="black" d="M824.42,-117.6C833.17,-119 841.57,-120.35 849.21,-121.57"/>
<polygon fill="black" stroke="black" points="848.6,-125.02 859.02,-123.14 849.7,-118.1 848.6,-125.02"/>
</g>
<!-- 4860446224+ -->
<g id="node2" class="node">
<title>4860446224+</title>
<ellipse fill="none" stroke="black" cx="546" cy="-100.5" rx="27" ry="18"/>
<text text-anchor="middle" x="546" y="-95.45" font-family="Times,serif" font-size="14.00">+</text>
</g>
<!-- 4860446224+&#45;&gt;4860446224 -->
<g id="edge1" class="edge">
<title>4860446224+&#45;&gt;4860446224</title>
<path fill="none" stroke="black" d="M573.35,-100.5C580.45,-100.5 588.61,-100.5 597.36,-100.5"/>
<polygon fill="black" stroke="black" points="597.2,-104 607.2,-100.5 597.2,-97 597.2,-104"/>
</g>
<!-- 4860365888 -->
<g id="node3" class="node">
<title>4860365888</title>
<polygon fill="none" stroke="black" points="300,-110.5 300,-146.5 480.75,-146.5 480.75,-110.5 300,-110.5"/>
<text text-anchor="middle" x="323" y="-123.7" font-family="Times,serif" font-size="14.00">x2w2</text>
<polyline fill="none" stroke="black" points="346,-111 346,-146.5"/>
<text text-anchor="middle" x="372.75" y="-123.7" font-family="Times,serif" font-size="14.00">0.0000</text>
<polyline fill="none" stroke="black" points="399.5,-111 399.5,-146.5"/>
<text text-anchor="middle" x="440.12" y="-123.7" font-family="Times,serif" font-size="14.00">grad 0.5000</text>
</g>
<!-- 4860365888&#45;&gt;4860446224+ -->
<g id="edge6" class="edge">
<title>4860365888&#45;&gt;4860446224+</title>
<path fill="none" stroke="black" d="M481.18,-112.13C490.73,-110.39 500.01,-108.7 508.39,-107.17"/>
<polygon fill="black" stroke="black" points="508.89,-110.64 518.1,-105.4 507.64,-103.75 508.89,-110.64"/>
</g>
<!-- 4860365888* -->
<g id="node4" class="node">
<title>4860365888*</title>
<ellipse fill="none" stroke="black" cx="234.75" cy="-128.5" rx="27" ry="18"/>
<text text-anchor="middle" x="234.75" y="-123.45" font-family="Times,serif" font-size="14.00">*</text>
</g>
<!-- 4860365888*&#45;&gt;4860365888 -->
<g id="edge2" class="edge">
<title>4860365888*&#45;&gt;4860365888</title>
<path fill="none" stroke="black" d="M262.16,-128.5C269.87,-128.5 278.79,-128.5 288.26,-128.5"/>
<polygon fill="black" stroke="black" points="288.07,-132 298.07,-128.5 288.07,-125 288.07,-132"/>
</g>
<!-- 4859970128 -->
<g id="node5" class="node">
<title>4859970128</title>
<polygon fill="none" stroke="black" points="1.5,-55.5 1.5,-91.5 170.25,-91.5 170.25,-55.5 1.5,-55.5"/>
<text text-anchor="middle" x="16.25" y="-68.7" font-family="Times,serif" font-size="14.00">x1</text>
<polyline fill="none" stroke="black" points="31,-56 31,-91.5"/>
<text text-anchor="middle" x="57.75" y="-68.7" font-family="Times,serif" font-size="14.00">2.0000</text>
<polyline fill="none" stroke="black" points="84.5,-56 84.5,-91.5"/>
<text text-anchor="middle" x="127.38" y="-68.7" font-family="Times,serif" font-size="14.00">grad &#45;1.5000</text>
</g>
<!-- 4859972576* -->
<g id="node13" class="node">
<title>4859972576*</title>
<ellipse fill="none" stroke="black" cx="234.75" cy="-73.5" rx="27" ry="18"/>
<text text-anchor="middle" x="234.75" y="-68.45" font-family="Times,serif" font-size="14.00">*</text>
</g>
<!-- 4859970128&#45;&gt;4859972576* -->
<g id="edge14" class="edge">
<title>4859970128&#45;&gt;4859972576*</title>
<path fill="none" stroke="black" d="M170.61,-73.5C179.42,-73.5 188.03,-73.5 195.92,-73.5"/>
<polygon fill="black" stroke="black" points="195.76,-77 205.76,-73.5 195.76,-70 195.76,-77"/>
</g>
<!-- 4859969600 -->
<g id="node6" class="node">
<title>4859969600</title>
<polygon fill="none" stroke="black" points="637.88,-137.5 637.88,-173.5 795.38,-173.5 795.38,-137.5 637.88,-137.5"/>
<text text-anchor="middle" x="649.25" y="-150.7" font-family="Times,serif" font-size="14.00">b</text>
<polyline fill="none" stroke="black" points="660.62,-138 660.62,-173.5"/>
<text text-anchor="middle" x="687.38" y="-150.7" font-family="Times,serif" font-size="14.00">6.8814</text>
<polyline fill="none" stroke="black" points="714.12,-138 714.12,-173.5"/>
<text text-anchor="middle" x="754.75" y="-150.7" font-family="Times,serif" font-size="14.00">grad 0.5000</text>
</g>
<!-- 4859969600&#45;&gt;4860447424+ -->
<g id="edge13" class="edge">
<title>4859969600&#45;&gt;4860447424+</title>
<path fill="none" stroke="black" d="M795.52,-142.57C814.41,-139.43 833.73,-136.22 849.66,-133.58"/>
<polygon fill="black" stroke="black" points="849.82,-137.1 859.11,-132.01 848.67,-130.19 849.82,-137.1"/>
</g>
<!-- 4859971232 -->
<g id="node7" class="node">
<title>4859971232</title>
<polygon fill="none" stroke="black" points="3.75,-165.5 3.75,-201.5 168,-201.5 168,-165.5 3.75,-165.5"/>
<text text-anchor="middle" x="18.5" y="-178.7" font-family="Times,serif" font-size="14.00">x2</text>
<polyline fill="none" stroke="black" points="33.25,-166 33.25,-201.5"/>
<text text-anchor="middle" x="60" y="-178.7" font-family="Times,serif" font-size="14.00">0.0000</text>
<polyline fill="none" stroke="black" points="86.75,-166 86.75,-201.5"/>
<text text-anchor="middle" x="127.38" y="-178.7" font-family="Times,serif" font-size="14.00">grad 0.5000</text>
</g>
<!-- 4859971232&#45;&gt;4860365888* -->
<g id="edge9" class="edge">
<title>4859971232&#45;&gt;4860365888*</title>
<path fill="none" stroke="black" d="M147.91,-165.03C155.98,-162.31 164.1,-159.43 171.75,-156.5 181.69,-152.69 192.31,-148.1 201.9,-143.74"/>
<polygon fill="black" stroke="black" points="203.22,-146.98 210.83,-139.61 200.28,-140.63 203.22,-146.98"/>
</g>
<!-- 4860447424 -->
<g id="node8" class="node">
<title>4860447424</title>
<polygon fill="none" stroke="black" points="950.25,-109.5 950.25,-145.5 1107.75,-145.5 1107.75,-109.5 950.25,-109.5"/>
<text text-anchor="middle" x="961.62" y="-122.7" font-family="Times,serif" font-size="14.00">n</text>
<polyline fill="none" stroke="black" points="973,-110 973,-145.5"/>
<text text-anchor="middle" x="999.75" y="-122.7" font-family="Times,serif" font-size="14.00">0.8814</text>
<polyline fill="none" stroke="black" points="1026.5,-110 1026.5,-145.5"/>
<text text-anchor="middle" x="1067.12" y="-122.7" font-family="Times,serif" font-size="14.00">grad 0.5000</text>
</g>
<!-- 4860446704tanh -->
<g id="node15" class="node">
<title>4860446704tanh</title>
<ellipse fill="none" stroke="black" cx="1170.75" cy="-127.5" rx="27" ry="18"/>
<text text-anchor="middle" x="1170.75" y="-122.45" font-family="Times,serif" font-size="14.00">tanh</text>
</g>
<!-- 4860447424&#45;&gt;4860446704tanh -->
<g id="edge11" class="edge">
<title>4860447424&#45;&gt;4860446704tanh</title>
<path fill="none" stroke="black" d="M1108.05,-127.5C1116.42,-127.5 1124.63,-127.5 1132.19,-127.5"/>
<polygon fill="black" stroke="black" points="1131.96,-131 1141.96,-127.5 1131.96,-124 1131.96,-131"/>
</g>
<!-- 4860447424+&#45;&gt;4860447424 -->
<g id="edge3" class="edge">
<title>4860447424+&#45;&gt;4860447424</title>
<path fill="none" stroke="black" d="M914.54,-127.5C921.68,-127.5 929.84,-127.5 938.44,-127.5"/>
<polygon fill="black" stroke="black" points="938.42,-131 948.42,-127.5 938.42,-124 938.42,-131"/>
</g>
<!-- 4859970272 -->
<g id="node10" class="node">
<title>4859970272</title>
<polygon fill="none" stroke="black" points="2.25,-110.5 2.25,-146.5 169.5,-146.5 169.5,-110.5 2.25,-110.5"/>
<text text-anchor="middle" x="18.5" y="-123.7" font-family="Times,serif" font-size="14.00">w2</text>
<polyline fill="none" stroke="black" points="34.75,-111 34.75,-146.5"/>
<text text-anchor="middle" x="61.5" y="-123.7" font-family="Times,serif" font-size="14.00">1.0000</text>
<polyline fill="none" stroke="black" points="88.25,-111 88.25,-146.5"/>
<text text-anchor="middle" x="128.88" y="-123.7" font-family="Times,serif" font-size="14.00">grad 0.0000</text>
</g>
<!-- 4859970272&#45;&gt;4860365888* -->
<g id="edge12" class="edge">
<title>4859970272&#45;&gt;4860365888*</title>
<path fill="none" stroke="black" d="M169.76,-128.5C178.94,-128.5 187.92,-128.5 196.11,-128.5"/>
<polygon fill="black" stroke="black" points="195.97,-132 205.97,-128.5 195.97,-125 195.97,-132"/>
</g>
<!-- 4859973488 -->
<g id="node11" class="node">
<title>4859973488</title>
<polygon fill="none" stroke="black" points="0,-0.5 0,-36.5 171.75,-36.5 171.75,-0.5 0,-0.5"/>
<text text-anchor="middle" x="16.25" y="-13.7" font-family="Times,serif" font-size="14.00">w1</text>
<polyline fill="none" stroke="black" points="32.5,-1 32.5,-36.5"/>
<text text-anchor="middle" x="61.5" y="-13.7" font-family="Times,serif" font-size="14.00">&#45;3.0000</text>
<polyline fill="none" stroke="black" points="90.5,-1 90.5,-36.5"/>
<text text-anchor="middle" x="131.12" y="-13.7" font-family="Times,serif" font-size="14.00">grad 1.0000</text>
</g>
<!-- 4859973488&#45;&gt;4859972576* -->
<g id="edge7" class="edge">
<title>4859973488&#45;&gt;4859972576*</title>
<path fill="none" stroke="black" d="M145.11,-36.92C154.08,-39.99 163.2,-43.23 171.75,-46.5 181.55,-50.24 192.07,-54.66 201.6,-58.83"/>
<polygon fill="black" stroke="black" points="199.91,-61.91 210.48,-62.77 202.75,-55.51 199.91,-61.91"/>
</g>
<!-- 4859972576 -->
<g id="node12" class="node">
<title>4859972576</title>
<polygon fill="none" stroke="black" points="297.75,-55.5 297.75,-91.5 483,-91.5 483,-55.5 297.75,-55.5"/>
<text text-anchor="middle" x="320.75" y="-68.7" font-family="Times,serif" font-size="14.00">x1w1</text>
<polyline fill="none" stroke="black" points="343.75,-56 343.75,-91.5"/>
<text text-anchor="middle" x="372.75" y="-68.7" font-family="Times,serif" font-size="14.00">&#45;6.0000</text>
<polyline fill="none" stroke="black" points="401.75,-56 401.75,-91.5"/>
<text text-anchor="middle" x="442.38" y="-68.7" font-family="Times,serif" font-size="14.00">grad 0.5000</text>
</g>
<!-- 4859972576&#45;&gt;4860446224+ -->
<g id="edge10" class="edge">
<title>4859972576&#45;&gt;4860446224+</title>
<path fill="none" stroke="black" d="M483.4,-89.67C492.14,-91.21 500.61,-92.7 508.33,-94.05"/>
<polygon fill="black" stroke="black" points="507.45,-97.45 517.91,-95.74 508.66,-90.56 507.45,-97.45"/>
</g>
<!-- 4859972576*&#45;&gt;4859972576 -->
<g id="edge4" class="edge">
<title>4859972576*&#45;&gt;4859972576</title>
<path fill="none" stroke="black" d="M262.16,-73.5C269.2,-73.5 277.25,-73.5 285.8,-73.5"/>
<polygon fill="black" stroke="black" points="285.79,-77 295.79,-73.5 285.79,-70 285.79,-77"/>
</g>
<!-- 4860446704 -->
<g id="node14" class="node">
<title>4860446704</title>
<polygon fill="none" stroke="black" points="1233.75,-109.5 1233.75,-145.5 1391.25,-145.5 1391.25,-109.5 1233.75,-109.5"/>
<text text-anchor="middle" x="1245.12" y="-122.7" font-family="Times,serif" font-size="14.00">o</text>
<polyline fill="none" stroke="black" points="1256.5,-110 1256.5,-145.5"/>
<text text-anchor="middle" x="1283.25" y="-122.7" font-family="Times,serif" font-size="14.00">0.7071</text>
<polyline fill="none" stroke="black" points="1310,-110 1310,-145.5"/>
<text text-anchor="middle" x="1350.62" y="-122.7" font-family="Times,serif" font-size="14.00">grad 1.0000</text>
</g>
<!-- 4860446704tanh&#45;&gt;4860446704 -->
<g id="edge5" class="edge">
<title>4860446704tanh&#45;&gt;4860446704</title>
<path fill="none" stroke="black" d="M1198.04,-127.5C1205.18,-127.5 1213.34,-127.5 1221.94,-127.5"/>
<polygon fill="black" stroke="black" points="1221.92,-131 1231.92,-127.5 1221.92,-124 1221.92,-131"/>
</g>
</g>
</svg>
