<?xml version="1.0" encoding="UTF-8" standalone="no"?>
<!DOCTYPE svg PUBLIC "-//W3C//DTD SVG 1.1//EN"
 "http://www.w3.org/Graphics/SVG/1.1/DTD/svg11.dtd">
<!-- Generated by graphviz version 12.2.1 (0)
 -->
<!-- Pages: 1 -->
<svg width="1035pt" height="156pt"
 viewBox="0.00 0.00 1034.75 156.00" xmlns="http://www.w3.org/2000/svg" xmlns:xlink="http://www.w3.org/1999/xlink">
<g id="graph0" class="graph" transform="scale(1 1) rotate(0) translate(4 152)">
<polygon fill="white" stroke="none" points="-4,4 -4,-152 1030.75,-152 1030.75,4 -4,4"/>
<!-- 4860324880 -->
<g id="node1" class="node">
<title>4860324880</title>
<polygon fill="none" stroke="black" points="2.62,-111.5 2.62,-147.5 159.38,-147.5 159.38,-111.5 2.62,-111.5"/>
<text text-anchor="middle" x="13.62" y="-124.7" font-family="Times,serif" font-size="14.00">a</text>
<polyline fill="none" stroke="black" points="24.62,-112 24.62,-147.5"/>
<text text-anchor="middle" x="51.38" y="-124.7" font-family="Times,serif" font-size="14.00">2.0000</text>
<polyline fill="none" stroke="black" points="78.12,-112 78.12,-147.5"/>
<text text-anchor="middle" x="118.75" y="-124.7" font-family="Times,serif" font-size="14.00">grad 0.0000</text>
</g>
<!-- 4860388064* -->
<g id="node6" class="node">
<title>4860388064*</title>
<ellipse fill="none" stroke="black" cx="225" cy="-101.5" rx="27" ry="18"/>
<text text-anchor="middle" x="225" y="-96.45" font-family="Times,serif" font-size="14.00">*</text>
</g>
<!-- 4860324880&#45;&gt;4860388064* -->
<g id="edge8" class="edge">
<title>4860324880&#45;&gt;4860388064*</title>
<path fill="none" stroke="black" d="M159.65,-114.19C169.35,-112.28 178.89,-110.4 187.53,-108.69"/>
<polygon fill="black" stroke="black" points="188.06,-112.16 197.19,-106.79 186.7,-105.29 188.06,-112.16"/>
</g>
<!-- 4860324400 -->
<g id="node2" class="node">
<title>4860324400</title>
<polygon fill="none" stroke="black" points="0,-56.5 0,-92.5 162,-92.5 162,-56.5 0,-56.5"/>
<text text-anchor="middle" x="11.38" y="-69.7" font-family="Times,serif" font-size="14.00">b</text>
<polyline fill="none" stroke="black" points="22.75,-57 22.75,-92.5"/>
<text text-anchor="middle" x="51.75" y="-69.7" font-family="Times,serif" font-size="14.00">&#45;3.0000</text>
<polyline fill="none" stroke="black" points="80.75,-57 80.75,-92.5"/>
<text text-anchor="middle" x="121.38" y="-69.7" font-family="Times,serif" font-size="14.00">grad 0.0000</text>
</g>
<!-- 4860324400&#45;&gt;4860388064* -->
<g id="edge6" class="edge">
<title>4860324400&#45;&gt;4860388064*</title>
<path fill="none" stroke="black" d="M162.13,-89.74C170.9,-91.4 179.49,-93.04 187.33,-94.53"/>
<polygon fill="black" stroke="black" points="186.64,-97.96 197.12,-96.39 187.95,-91.08 186.64,-97.96"/>
</g>
<!-- 4860387968 -->
<g id="node3" class="node">
<title>4860387968</title>
<polygon fill="none" stroke="black" points="579,-55.5 579,-91.5 735.75,-91.5 735.75,-55.5 579,-55.5"/>
<text text-anchor="middle" x="590" y="-68.7" font-family="Times,serif" font-size="14.00">e</text>
<polyline fill="none" stroke="black" points="601,-56 601,-91.5"/>
<text text-anchor="middle" x="627.75" y="-68.7" font-family="Times,serif" font-size="14.00">4.0000</text>
<polyline fill="none" stroke="black" points="654.5,-56 654.5,-91.5"/>
<text text-anchor="middle" x="695.12" y="-68.7" font-family="Times,serif" font-size="14.00">grad 0.0000</text>
</g>
<!-- 4860387728* -->
<g id="node10" class="node">
<title>4860387728*</title>
<ellipse fill="none" stroke="black" cx="800.25" cy="-45.5" rx="27" ry="18"/>
<text text-anchor="middle" x="800.25" y="-40.45" font-family="Times,serif" font-size="14.00">*</text>
</g>
<!-- 4860387968&#45;&gt;4860387728* -->
<g id="edge4" class="edge">
<title>4860387968&#45;&gt;4860387728*</title>
<path fill="none" stroke="black" d="M736.23,-58.03C745.48,-56.19 754.57,-54.38 762.83,-52.74"/>
<polygon fill="black" stroke="black" points="763.28,-56.22 772.41,-50.83 761.92,-49.35 763.28,-56.22"/>
</g>
<!-- 4860387968+ -->
<g id="node4" class="node">
<title>4860387968+</title>
<ellipse fill="none" stroke="black" cx="514.5" cy="-73.5" rx="27" ry="18"/>
<text text-anchor="middle" x="514.5" y="-68.45" font-family="Times,serif" font-size="14.00">+</text>
</g>
<!-- 4860387968+&#45;&gt;4860387968 -->
<g id="edge1" class="edge">
<title>4860387968+&#45;&gt;4860387968</title>
<path fill="none" stroke="black" d="M542,-73.5C549.53,-73.5 558.19,-73.5 567.29,-73.5"/>
<polygon fill="black" stroke="black" points="567.05,-77 577.05,-73.5 567.05,-70 567.05,-77"/>
</g>
<!-- 4860388064 -->
<g id="node5" class="node">
<title>4860388064</title>
<polygon fill="none" stroke="black" points="288.75,-83.5 288.75,-119.5 450.75,-119.5 450.75,-83.5 288.75,-83.5"/>
<text text-anchor="middle" x="300.12" y="-96.7" font-family="Times,serif" font-size="14.00">d</text>
<polyline fill="none" stroke="black" points="311.5,-84 311.5,-119.5"/>
<text text-anchor="middle" x="340.5" y="-96.7" font-family="Times,serif" font-size="14.00">&#45;6.0000</text>
<polyline fill="none" stroke="black" points="369.5,-84 369.5,-119.5"/>
<text text-anchor="middle" x="410.12" y="-96.7" font-family="Times,serif" font-size="14.00">grad 0.0000</text>
</g>
<!-- 4860388064&#45;&gt;4860387968+ -->
<g id="edge9" class="edge">
<title>4860388064&#45;&gt;4860387968+</title>
<path fill="none" stroke="black" d="M450.89,-85.78C459.94,-84.01 468.8,-82.27 476.88,-80.68"/>
<polygon fill="black" stroke="black" points="477.45,-84.14 486.59,-78.78 476.11,-77.27 477.45,-84.14"/>
</g>
<!-- 4860388064*&#45;&gt;4860388064 -->
<g id="edge2" class="edge">
<title>4860388064*&#45;&gt;4860388064</title>
<path fill="none" stroke="black" d="M252.18,-101.5C259.54,-101.5 267.99,-101.5 276.9,-101.5"/>
<polygon fill="black" stroke="black" points="276.87,-105 286.87,-101.5 276.87,-98 276.87,-105"/>
</g>
<!-- 4860323632 -->
<g id="node7" class="node">
<title>4860323632</title>
<polygon fill="none" stroke="black" points="288,-28.5 288,-64.5 451.5,-64.5 451.5,-28.5 288,-28.5"/>
<text text-anchor="middle" x="299" y="-41.7" font-family="Times,serif" font-size="14.00">c</text>
<polyline fill="none" stroke="black" points="310,-29 310,-64.5"/>
<text text-anchor="middle" x="340.12" y="-41.7" font-family="Times,serif" font-size="14.00">10.0000</text>
<polyline fill="none" stroke="black" points="370.25,-29 370.25,-64.5"/>
<text text-anchor="middle" x="410.88" y="-41.7" font-family="Times,serif" font-size="14.00">grad 0.0000</text>
</g>
<!-- 4860323632&#45;&gt;4860387968+ -->
<g id="edge7" class="edge">
<title>4860323632&#45;&gt;4860387968+</title>
<path fill="none" stroke="black" d="M451.72,-61.81C460.49,-63.47 469.07,-65.1 476.91,-66.58"/>
<polygon fill="black" stroke="black" points="476.2,-70.01 486.68,-68.43 477.5,-63.13 476.2,-70.01"/>
</g>
<!-- 4860387632 -->
<g id="node8" class="node">
<title>4860387632</title>
<polygon fill="none" stroke="black" points="577.5,-0.5 577.5,-36.5 737.25,-36.5 737.25,-0.5 577.5,-0.5"/>
<text text-anchor="middle" x="587.75" y="-13.7" font-family="Times,serif" font-size="14.00">f</text>
<polyline fill="none" stroke="black" points="598,-1 598,-36.5"/>
<text text-anchor="middle" x="627" y="-13.7" font-family="Times,serif" font-size="14.00">&#45;2.0000</text>
<polyline fill="none" stroke="black" points="656,-1 656,-36.5"/>
<text text-anchor="middle" x="696.62" y="-13.7" font-family="Times,serif" font-size="14.00">grad 0.0000</text>
</g>
<!-- 4860387632&#45;&gt;4860387728* -->
<g id="edge5" class="edge">
<title>4860387632&#45;&gt;4860387728*</title>
<path fill="none" stroke="black" d="M737.46,-33.66C746.21,-35.33 754.77,-36.98 762.61,-38.48"/>
<polygon fill="black" stroke="black" points="761.9,-41.9 772.38,-40.35 763.22,-35.03 761.9,-41.9"/>
</g>
<!-- 4860387728 -->
<g id="node9" class="node">
<title>4860387728</title>
<polygon fill="none" stroke="black" points="863.25,-27.5 863.25,-63.5 1026.75,-63.5 1026.75,-27.5 863.25,-27.5"/>
<text text-anchor="middle" x="875.38" y="-40.7" font-family="Times,serif" font-size="14.00">L</text>
<polyline fill="none" stroke="black" points="887.5,-28 887.5,-63.5"/>
<text text-anchor="middle" x="916.5" y="-40.7" font-family="Times,serif" font-size="14.00">&#45;8.0000</text>
<polyline fill="none" stroke="black" points="945.5,-28 945.5,-63.5"/>
<text text-anchor="middle" x="986.12" y="-40.7" font-family="Times,serif" font-size="14.00">grad 0.0000</text>
</g>
<!-- 4860387728*&#45;&gt;4860387728 -->
<g id="edge3" class="edge">
<title>4860387728*&#45;&gt;4860387728</title>
<path fill="none" stroke="black" d="M827.43,-45.5C834.68,-45.5 842.98,-45.5 851.74,-45.5"/>
<polygon fill="black" stroke="black" points="851.52,-49 861.52,-45.5 851.52,-42 851.52,-49"/>
</g>
</g>
</svg>
